# xmcd
#
# Track frame offsets: 
#        150
#        2220
#        28128
#        50021
#        51555
#        75447
#        90963
#        110455
#        124350
#        162938
#        193641
#        195030
#        208654
#        227470
#        232763
#        245346
#        258884
#        261035
#        275949
#
# Disc length: 3717 seconds
#
# Revision: 2
# Processed by: cddbd v1.5.2PL0 Copyright (c) Steve Scherf et al.
# Submitted via: ExactAudioCopyFreeDBPlugin 1.0
#
DISCID=f90e8313
DTITLE=Various Artist - Black Power:  Music of a Revolution
DYEAR=2004
DGENRE=Rhythm and Blues
TTITLE0=Huey Newton - Speech:  "The Black Panther Party Calls For"
TTITLE1=Marvin Gaye - You're the Man (Parts I and II)
TTITLE2=The Philadelphia International All Stars - Let's Clean Up the 
TTITLE2=Ghetto
TTITLE3=Kathleen Cleaver - Speech:  "Change It"
TTITLE4=Segments of Time - Song to the System
TTITLE5=Sons of Slum - Right On
TTITLE6=S.O.U.L. - Tell it Like it Is
TTITLE7=Earth, Wind and Fire - Mighty, Mighty
TTITLE8=Les McCann and Eddie Harris - Compared to What
TTITLE9=The Soul Children - I Don't Know What This World is Coming To
TTITLE10=Huey Newton - Speech:  "Power to the People"
TTITLE11=The Chi-Lites - Give More Power to the People
TTITLE12=The O'Jays - Give the People What They Want
TTITLE13=Stokely Carmichael - Speech:  "We Want Black Power"
TTITLE14=James Brown - Say It Loud – I'm Black and I'm Proud
TTITLE15=Hank Ballard - Blackenized
TTITLE16=Stokely Carmichael - Speech:  "So Much Strength"
TTITLE17=The Isley Brothers - Fight the Power
TTITLE18=Malcolm X - Speech:  "Stop Singing and Start Swinging"
EXTD=
EXTT0=
EXTT1=
EXTT2=
EXTT3=
EXTT4=
EXTT5=
EXTT6=
EXTT7=
EXTT8=
EXTT9=
EXTT10=
EXTT11=
EXTT12=
EXTT13=
EXTT14=
EXTT15=
EXTT16=
EXTT17=
EXTT18=
PLAYORDER=
